/* XPM */
static char * logo_xpm[] = {
"80 50 143 2",
"  	c #FFFFFF",
". 	c #E4E4E4",
"+ 	c #000000",
"@ 	c #0B0B0B",
"# 	c #FCFCFC",
"$ 	c #ADADAD",
"% 	c #3F3F3F",
"& 	c #3E3E3E",
"* 	c #767676",
"= 	c #757575",
"- 	c #ACACAC",
"; 	c #636363",
"> 	c #151515",
", 	c #060606",
"' 	c #242424",
") 	c #808080",
"! 	c #CECECE",
"~ 	c #191919",
"{ 	c #F9F9F9",
"] 	c #959595",
"^ 	c #3C3C3C",
"/ 	c #0E0E0E",
"( 	c #040404",
"_ 	c #1D1D1D",
": 	c #606060",
"< 	c #DCDCDC",
"[ 	c #E5E5E5",
"} 	c #0C0C0C",
"| 	c #FDFDFD",
"1 	c #C9C9C9",
"2 	c #676767",
"3 	c #1B1B1B",
"4 	c #262626",
"5 	c #9D9D9D",
"6 	c #D3D3D3",
"7 	c #4D4D4D",
"8 	c #E6E6E6",
"9 	c #303030",
"0 	c #D2D2D2",
"a 	c #D1D1D1",
"b 	c #B2B2B2",
"c 	c #3D3D3D",
"d 	c #171717",
"e 	c #A3A3A3",
"f 	c #F8F8F8",
"g 	c #252525",
"h 	c #EFEFEF",
"i 	c #EDEDED",
"j 	c #6C6C6C",
"k 	c #818181",
"l 	c #FAFAFA",
"m 	c #353535",
"n 	c #6E6E6E",
"o 	c #F3F3F3",
"p 	c #6D6D6D",
"q 	c #494949",
"r 	c #9A9A9A",
"s 	c #525252",
"t 	c #7F7F7F",
"u 	c #717171",
"v 	c #424242",
"w 	c #D9D9D9",
"x 	c #787878",
"y 	c #2E2E2E",
"z 	c #939393",
"A 	c #B5B5B5",
"B 	c #969696",
"C 	c #575757",
"D 	c #EEEEEE",
"E 	c #646464",
"F 	c #898989",
"G 	c #4C4C4C",
"H 	c #A4A4A4",
"I 	c #1F1F1F",
"J 	c #F4F4F4",
"K 	c #F1F1F1",
"L 	c #383838",
"M 	c #CBCBCB",
"N 	c #090909",
"O 	c #E9E9E9",
"P 	c #373737",
"Q 	c #C7C7C7",
"R 	c #F5F5F5",
"S 	c #2D2D2D",
"T 	c #C1C1C1",
"U 	c #D8D8D8",
"V 	c #979797",
"W 	c #F7F7F7",
"X 	c #AAAAAA",
"Y 	c #F6F6F6",
"Z 	c #C5C5C5",
"` 	c #393939",
" .	c #020202",
"..	c #030303",
"+.	c #0D0D0D",
"@.	c #FEFEFE",
"#.	c #080808",
"$.	c #2A2A2A",
"%.	c #515151",
"&.	c #535353",
"*.	c #BFBFBF",
"=.	c #2F2F2F",
"-.	c #111111",
";.	c #626262",
">.	c #949494",
",.	c #363636",
"'.	c #858585",
").	c #474747",
"!.	c #E7E7E7",
"~.	c #343434",
"{.	c #888888",
"].	c #666666",
"^.	c #737373",
"/.	c #747474",
"(.	c #ABABAB",
"_.	c #0F0F0F",
":.	c #B9B9B9",
"<.	c #D0D0D0",
"[.	c #323232",
"}.	c #A6A6A6",
"|.	c #D4D4D4",
"1.	c #A2A2A2",
"2.	c #292929",
"3.	c #050505",
"4.	c #181818",
"5.	c #DADADA",
"6.	c #5D5D5D",
"7.	c #1A1A1A",
"8.	c #3B3B3B",
"9.	c #131313",
"0.	c #5F5F5F",
"a.	c #E3E3E3",
"b.	c #8A8A8A",
"c.	c #FBFBFB",
"d.	c #434343",
"e.	c #B3B3B3",
"f.	c #F0F0F0",
"g.	c #DDDDDD",
"h.	c #828282",
"i.	c #0A0A0A",
"j.	c #D7D7D7",
"k.	c #141414",
"l.	c #EBEBEB",
"                                                                                                                                                                ",
"                                                                                                                                                                ",
"                                                                                                                                                                ",
"                                                                                                                                                                ",
"                                                                                                                                                                ",
"                                                                                                                                                                ",
"                                                                                                                                                                ",
"                                                                                                                                                                ",
"                                                                                                                                                                ",
"                                                                                                                                                                ",
"                                                                                                                                                                ",
"                                                                                                                                                                ",
"                                                                                                                                                                ",
"                                                                                                                                                                ",
"                                                                                                                                                                ",
"                                                                                                                                                                ",
"                                                                                                                                                                ",
"                                                                                                                                                                ",
"                                                                                                                                                                ",
"                                                                                                                                                                ",
"                                                                                    . + + @ #     + + +     . + + @ #                                           ",
"                                                                                    $ + + %       + + +     $ + + &                                             ",
"                                                                                    * + + *       + + +     * + + =                                             ",
"                                                                                    % + + $                 % + + -                                             ",
"                                  . ; > , ' ) ! + + ~       { ] ^ / ( _ : <       # @ + + .   [ + + } |   # @ + + 1 2 3 , 4 5                                   ",
"                                6 > + + + + + 3 + + 7     8 9 + + + + + + / 0     a + + 3     b + + c     a + + ( d + + + + + e                                 ",
"                              f g + + ) h i j + + + k   l m + + n 8 o p + + q     r + + s     t + + u     r + + + v w o x + + y                                 ",
"                              z + + :       l } + + A   B + + C       D + + }     E + + F     G + + H     E + + I J     K + + ,                                 ",
"                              L + + M       f N + + O   P + + Q       R + + @     S + + T     ~ + + U     S + + V       R + + /                                 ",
"                              @ + + W       X + + _     @ + + Y       Z + + `   o  .+ ..J   [ + + +.@.  o  .+  .D       1 + + c                                 ",
"                              #.+ + h     f $.+ + %.    @ + + D       &.+ + V   *.+ + =.    b + + %     *.+ + -.@.      ;.+ + >.                                ",
"                              ,.+ + x W < q + + + '.    ).+ + u J !.p + + ~.l   {.+ + ].    t + + ^.    {.+ + + /.O K '.+ + g W                                 ",
"                              (.+ + + + + _./ + + :.    <.+.+ + + + + + [.!.    %.+ + 5     G + + }.    %.+ + ~ + + + + + > |.                                  ",
"                                1.2.3.4.;.6 3.+ 3.o       5.6.7...+.8.] l       7.+ + |.    ~ + + 5.    7.+ + ! t ' 3.9.0.a.                                    ",
"                                          b.+ + &.                                                                                                              ",
"                            c.d.e.f.c.g.h.( + i.j.                                                                                                              ",
"                            1 + + + + + + + -.:.                                                                                                                ",
"                            f >.` } ( k.^ '.l.                                                                                                                  ",
"                                                                                                                                                                ",
"                                                                                                                                                                ",
"                                                                                                                                                                ",
"                                                                                                                                                                ",
"                                                                                                                                                                ",
"                                                                                                                                                                ",
"                                                                                                                                                                ",
"                                                                                                                                                                ",
"                                                                                                                                                                ",
"                                                                                                                                                                ",
"                                                                                                                                                                ",
"                                                                                                                                                                "};
